<svg xmlns:dc="http://purl.org/dc/elements/1.1/" xmlns:cc="http://creativecommons.org/ns#" xmlns:rdf="http://www.w3.org/1999/02/22-rdf-syntax-ns#" xmlns:svg="http://www.w3.org/2000/svg" xmlns="http://www.w3.org/2000/svg" xmlns:sodipodi="http://sodipodi.sourceforge.net/DTD/sodipodi-0.dtd" xmlns:inkscape="http://www.inkscape.org/namespaces/inkscape" viewBox="0 0 500 300" version="1.1" id="el_16Py4gxwe" inkscape:version="0.92.3 (d244b95, 2018-08-02)" sodipodi:docname="palas1.svg"><style>@-webkit-keyframes el_ep6i1z1K3O_Animation{0%{opacity: 0;}10%{opacity: 0.2;}20%{opacity: 0.4;}30%{opacity: 0.6;}40%{opacity: 0.8;}50%{opacity: 1;}60%{opacity: 0.8;}70%{opacity: 0.6;}80%{opacity: 0.4;}90%{opacity: 0.2;}100%{opacity: 0;}}@keyframes el_ep6i1z1K3O_Animation{0%{opacity: 0;}10%{opacity: 0.2;}20%{opacity: 0.4;}30%{opacity: 0.6;}40%{opacity: 0.8;}50%{opacity: 1;}60%{opacity: 0.8;}70%{opacity: 0.6;}80%{opacity: 0.4;}90%{opacity: 0.2;}100%{opacity: 0;}}@-webkit-keyframes el_ep6i1z1K3O_yo6SxCAzC_Animation{0%{-webkit-transform: scale(2, 2);transform: scale(2, 2);}100%{-webkit-transform: scale(2, 2);transform: scale(2, 2);}}@keyframes el_ep6i1z1K3O_yo6SxCAzC_Animation{0%{-webkit-transform: scale(2, 2);transform: scale(2, 2);}100%{-webkit-transform: scale(2, 2);transform: scale(2, 2);}}@-webkit-keyframes el_ep6i1z1K3O_lCmvoKxcY_Animation{0%{-webkit-transform: translate(170px, 330px);transform: translate(170px, 330px);}100%{-webkit-transform: translate(170px, 330px);transform: translate(170px, 330px);}}@keyframes el_ep6i1z1K3O_lCmvoKxcY_Animation{0%{-webkit-transform: translate(170px, 330px);transform: translate(170px, 330px);}100%{-webkit-transform: translate(170px, 330px);transform: translate(170px, 330px);}}#el_16Py4gxwe *{-webkit-animation-duration: 2s;animation-duration: 2s;-webkit-animation-iteration-count: infinite;animation-iteration-count: infinite;-webkit-animation-timing-function: cubic-bezier(0, 0, 1, 1);animation-timing-function: cubic-bezier(0, 0, 1, 1);}#el_ep6i1z1K3O{-webkit-transform: translate(0px, -217.48748px);transform: translate(0px, -217.48748px);-webkit-animation-name: el_ep6i1z1K3O_Animation;animation-name: el_ep6i1z1K3O_Animation;opacity: 0;}#el_--EP3yVNBM{fill: #716aca;stroke-width: 0.17626184;fill-opacity: 1;}#el_6PlBGU9y6h{fill: #716aca;stroke-width: 0.17626184;fill-opacity: 1;}#el_qBSiGYHk87{fill: #716aca;stroke-width: 0.17626184;fill-opacity: 1;}#el_PtxKfOD6ck{fill: #716aca;stroke-width: 0.17626184;fill-opacity: 1;}#el_pmk46hD6wT{fill: #716aca;stroke-width: 0.17626184;fill-opacity: 1;}#el_5ixzU3sadW{fill: #716aca;stroke-width: 0.17626184;fill-opacity: 1;}#el_tizONrV936{fill: #716aca;stroke-width: 0.17626184;fill-opacity: 1;}#el_G--PWVqTNz{fill: #716aca;stroke-width: 0.17626184;fill-opacity: 1;}#el_GkxA8Udg05{fill: #716aca;stroke-width: 0.17626186;fill-opacity: 1;}#el_A4VLMpKjEy{fill: #716aca;stroke-width: 0.17626184;fill-opacity: 1;}#el_YEHJG2PL02{fill: #716aca;stroke-width: 0.17626184;fill-opacity: 1;}#el_2zLmVjR-70{fill: #716aca;stroke-width: 0.17626184;fill-opacity: 1;}#el_KN-89q79_G{fill: #716aca;stroke-width: 0.17626184;fill-opacity: 1;}#el_-RfC9t0mf43{fill: #716aca;stroke-width: 0.17626184;fill-opacity: 1;}#el__vfpnnpR5tt{fill: #716aca;stroke-width: 0.17626184;fill-opacity: 1;}#el_uqCGAAwKy4t{fill: #716aca;stroke-width: 0.17626184;fill-opacity: 1;}#el_M8699jOwfBe{fill: #716aca;stroke-width: 0.17626184;fill-opacity: 1;}#el_WXUh1s-kw0T{fill: #716aca;stroke-width: 0.17626184;fill-opacity: 1;}#el_XrDYMiko_wM{fill: #716aca;stroke-width: 0.17626184;fill-opacity: 1;}#el_KccU3GRAGhZ{fill: #716aca;stroke-width: 0.17626186;fill-opacity: 1;}#el_ep6i1z1K3O_-euMKznZc{-webkit-transform-origin: 50% 50%;transform-origin: 50% 50%;transform-box: fill-box;-webkit-transform: scale(3, 2);transform: scale(3, 2);}#el_ep6i1z1K3O_wgy2THCUL{-webkit-transform-origin: 50% 50%;transform-origin: 50% 50%;transform-box: fill-box;-webkit-transform: translate(80px, 100px);transform: translate(80px, 100px);}#el_ep6i1z1K3O_lCmvoKxcY{-webkit-animation-name: el_ep6i1z1K3O_lCmvoKxcY_Animation;animation-name: el_ep6i1z1K3O_lCmvoKxcY_Animation;-webkit-transform-origin: 50% 50%;transform-origin: 50% 50%;transform-box: fill-box;-webkit-transform: translate(170px, 330px);transform: translate(170px, 330px);}#el_ep6i1z1K3O_yo6SxCAzC{-webkit-animation-name: el_ep6i1z1K3O_yo6SxCAzC_Animation;animation-name: el_ep6i1z1K3O_yo6SxCAzC_Animation;-webkit-transform-origin: 50% 50%;transform-origin: 50% 50%;transform-box: fill-box;-webkit-transform: scale(2, 2);transform: scale(2, 2);}</style>
  <defs id="defs2"/>
  <sodipodi:namedview id="el_NI1U74cTG-" pagecolor="#ffffff" bordercolor="#666666" borderopacity="1.0" inkscape:pageopacity="0.0" inkscape:pageshadow="2" inkscape:zoom="0.98994949" inkscape:cx="462.36411" inkscape:cy="75.349468" inkscape:document-units="mm" inkscape:current-layer="layer1" showgrid="false" inkscape:window-width="1389" inkscape:window-height="845" inkscape:window-x="1417" inkscape:window-y="27" inkscape:window-maximized="1" units="px"/>
  <metadata id="metadata5">
    <rdf:rdf>
      <cc:work rdf:about="">
        <dc:format>image/svg+xml</dc:format>
        <dc:type rdf:resource="http://purl.org/dc/dcmitype/StillImage"/>
        <dc:title/>
      </cc:work>
    </rdf:rdf>
  </metadata>
  <g id="el_ep6i1z1K3O_lCmvoKxcY" data-animator-group="true" data-animator-type="0"><g id="el_ep6i1z1K3O_yo6SxCAzC" data-animator-group="true" data-animator-type="2"><g inkscape:label="Layer 1" inkscape:groupmode="layer" id="el_ep6i1z1K3O">
    <path d="m 121.69466,286.5774 c -0.15433,-0.15434 -0.21152,-1.53243 -0.21152,-5.09802 v -4.88652 l 0.73311,-0.71861 c 0.4032,-0.39524 0.79849,-0.71862 0.87843,-0.71862 0.08,0 0.16646,2.12175 0.19227,4.71501 l 0.047,4.715 2.33747,0.0492 c 2.86308,0.0603 3.03851,-0.009 3.03851,-1.2011 0,-0.4813 0.0793,-0.8751 0.17627,-0.8751 0.0969,0 0.17626,-0.1097 0.17626,-0.24384 0,-0.13411 0.13881,-0.29279 0.30846,-0.35263 0.16964,-0.0599 0.40761,-0.15502 0.52879,-0.21152 0.30791,-0.14354 0.31643,4.51914 0.009,4.82676 -0.29985,0.29985 -7.91394,0.29985 -8.2138,0 z" id="el_--EP3yVNBM" inkscape:connector-curvature="0"/>
    <path d="m 114.25641,289.94408 c -0.70767,-0.37494 -1.41009,-1.11743 -1.41009,-1.49051 0,-0.14001 -0.0793,-0.25456 -0.17626,-0.25456 -0.10626,0 -0.17627,-0.73443 -0.17627,-1.85075 v -1.85075 h 0.70505 0.70505 v 1.11963 c 0,1.49941 0.49312,2.29167 1.47712,2.37321 0.8012,0.0664 1.24811,-0.2693 1.43764,-1.07986 0.0723,-0.30923 0.17975,-2.83482 0.23876,-5.61245 l 0.10727,-5.05022 0.61084,-0.53301 c 0.33597,-0.29316 0.67307,-0.49457 0.74912,-0.44756 0.20023,0.12375 0.1496,10.38802 -0.0564,11.43353 -0.33986,1.72487 -0.37592,1.85075 -0.53039,1.85075 -0.0859,0 -0.15626,0.0787 -0.15626,0.17493 0,0.30741 -0.75779,1.0589 -1.06777,1.0589 -0.16454,0 -0.3979,0.11899 -0.51858,0.2644 -0.28956,0.34889 -1.17171,0.30081 -1.93888,-0.1057 z" id="el_6PlBGU9y6h" inkscape:connector-curvature="0"/>
    <path d="m 112.49379,278.93906 c 0,-3.39303 0.0193,-3.60917 0.30846,-3.45332 0.16965,0.0914 0.48692,0.37243 0.70505,0.62445 0.37774,0.43645 0.39659,0.60056 0.39659,3.45333 v 2.99511 h -0.70505 -0.70505 z" id="el_qBSiGYHk87" inkscape:connector-curvature="0"/>
    <path d="m 97.864055,290.49945 c -0.14542,-0.0806 -0.56083,-0.2917 -0.923152,-0.46917 -0.492394,-0.2412 -0.770603,-0.55891 -1.101636,-1.25805 -0.592589,-1.25158 -0.583307,-2.18129 0.02863,-2.86809 l 0.471521,-0.52921 0.230871,0.66293 c 0.12698,0.36461 0.232068,0.79565 0.233525,0.95786 0.0014,0.16222 0.207999,0.53897 0.458971,0.83724 0.42053,0.49977 0.54333,0.54231 1.56544,0.54231 1.00536,0 1.15857,-0.0505 1.637685,-0.54062 0.59256,-0.60608 0.74228,-1.22801 0.74517,-3.09523 0.002,-1.37561 0.0799,-1.50577 1.21744,-2.03656 l 0.63524,-0.29643 0.0881,0.9835 c 0.0986,1.09983 0.37794,1.40416 1.11843,1.21831 0.43131,-0.10826 0.46815,-0.1896 0.47063,-1.03946 10e-4,-0.50711 0.0689,-1.02637 0.14975,-1.15392 0.15438,-0.24345 1.01039,-0.73754 1.2778,-0.73754 0.0859,0 0.15611,0.63303 0.15611,1.40673 0,1.3754 0.0104,1.40936 0.46794,1.52419 0.7995,0.20067 1.02454,-0.10105 1.0822,-1.4511 0.0435,-1.01915 0.12058,-1.27947 0.47703,-1.61202 0.23381,-0.21812 0.5806,-0.39659 0.77064,-0.39659 0.19004,0 0.38553,-0.0992 0.43443,-0.22032 0.0489,-0.12118 0.0952,1.14791 0.10283,2.82018 l 0.0139,3.04052 h -3.2256 c -3.41571,0 -3.64862,0.0531 -3.64862,0.83082 0,1.02985 -1.63122,2.69442 -2.64043,2.69442 -0.195815,0 -0.356025,0.0793 -0.356025,0.17627 0,0.21067 -1.56182,0.21795 -1.93888,0.009 z" id="el_PtxKfOD6ck" inkscape:connector-curvature="0"/>
    <path d="m 86.449054,283.39588 0.04609,-6.91829 h 1.145702 1.145703 l 0.04609,6.91829 0.04609,6.91827 h -1.237923 -1.237925 z" id="el_pmk46hD6wT" inkscape:connector-curvature="0"/>
    <path d="m 73.187399,287.42358 c 0,-1.35022 0.03519,-1.51598 0.321799,-1.51598 0.176985,0 0.484846,-0.17847 0.68413,-0.39658 0.361705,-0.3959 0.487902,-0.84964 0.69831,-2.51073 0.06133,-0.48417 0.270574,-1.09547 0.464992,-1.35843 0.464346,-0.62807 2.064977,-1.37463 2.947178,-1.37463 h 0.70023 l -0.0068,1.54228 c -0.0068,1.54223 -0.0068,1.54231 -0.57285,1.89716 -0.459183,0.28785 -0.576604,0.48753 -0.621906,1.05757 -0.0307,0.38648 -0.129863,0.77806 -0.220328,0.87016 -0.09046,0.0922 -0.164479,0.2784 -0.164479,0.41401 0,0.40106 -0.576156,1.51571 -0.908669,1.75793 -0.169311,0.12334 -0.412278,0.3287 -0.539925,0.45635 -0.261232,0.26122 -0.926905,0.45333 -2.032582,0.58659 l -0.74911,0.0903 z" id="el_5ixzU3sadW" inkscape:connector-curvature="0"/>
    <path d="m 66.225053,288.37527 c -0.05992,-0.0969 -0.264465,-0.17626 -0.454559,-0.17626 -0.498182,0 -1.649136,-0.77281 -2.155788,-1.44751 -0.547062,-0.72851 -0.888389,-2.24519 -0.647732,-2.87818 0.09543,-0.25098 0.173497,-0.64946 0.173497,-0.88551 0,-0.23605 0.07932,-0.42918 0.176265,-0.42918 0.09695,0 0.17626,-0.0819 0.17626,-0.1822 0,-0.44302 1.513025,-1.58041 2.102347,-1.58041 0.189483,0 0.393535,-0.0793 0.45345,-0.17627 0.243178,-0.39347 2.149035,-0.15941 3.428184,0.42102 0.58729,0.26648 1.419017,1.09491 1.419017,1.41339 0,0.14296 0.07931,0.30895 0.17626,0.36887 0.105586,0.0653 0.176265,1.23566 0.176265,2.91872 v 2.80978 h -1.321968 -1.321963 v -2.20125 c 0,-2.67858 -0.119617,-2.91034 -1.502142,-2.91034 -1.032595,0 -1.319121,0.20925 -1.315344,0.96062 0.004,0.75608 0.1579,0.91774 1.010805,1.06029 l 0.749114,0.12522 v 1.48272 1.48274 h -0.606518 c -0.333579,0 -0.655535,-0.0793 -0.71545,-0.17626 z" id="el_tizONrV936" inkscape:connector-curvature="0"/>
    <path d="m 57.852618,282.73489 v -5.81664 h 1.321963 1.321964 v 5.81664 5.81664 h -1.321964 -1.321963 z" id="el_G--PWVqTNz" inkscape:connector-curvature="0"/>
    <path d="m 52.797195,282.73489 -0.01232,-5.81664 h 1.30002 1.300025 v 5.81664 5.81664 h -1.28773 -1.287737 z" id="el_GkxA8Udg05" inkscape:connector-curvature="0"/>
    <path d="m 127.01918,292.34117 c -0.26745,-0.4082 -0.26745,-0.47311 0,-0.88131 0.32457,-0.49535 0.71246,-0.56278 1.08638,-0.18886 0.50234,0.50235 0.15209,1.51082 -0.52472,1.51082 -0.1501,0 -0.40285,-0.19829 -0.56166,-0.44065 z" id="el_A4VLMpKjEy" inkscape:connector-curvature="0"/>
    <path d="m 125.47636,289.99181 c -0.38271,-0.42287 -0.37024,-0.96205 0.0306,-1.32482 0.38848,-0.35157 0.5145,-0.36138 0.8127,-0.0632 0.41042,0.41041 0.45036,0.90028 0.10715,1.31374 -0.39909,0.48076 -0.57043,0.49415 -0.95044,0.0743 z" id="el_YEHJG2PL02" inkscape:connector-curvature="0"/>
    <path d="m 125.48531,289.78365 c -0.31106,-0.44408 -0.22452,-0.90853 0.22113,-1.18684 0.49889,-0.31156 1.01231,0.32439 0.78461,0.97185 -0.21205,0.60297 -0.66602,0.70002 -1.00574,0.21499 z" id="el_2zLmVjR-70" inkscape:connector-curvature="0"/>
    <path d="m 125.45617,289.73285 c -0.51311,-0.78308 0.2741,-1.66814 0.88414,-0.99404 0.25126,0.27762 0.28317,0.45331 0.15074,0.82985 -0.21976,0.62489 -0.6847,0.69865 -1.03488,0.16419 z" id="el_KN-89q79_G" inkscape:connector-curvature="0"/>
    <path d="m 125.45903,289.74614 c -0.35475,-0.50648 -0.34698,-0.59323 0.0925,-1.03268 0.34946,-0.34946 0.38291,-0.35235 0.70505,-0.0608 0.3821,0.34579 0.44293,0.95748 0.12667,1.27374 -0.31607,0.31607 -0.61778,0.25723 -0.92419,-0.18024 z" id="el_-RfC9t0mf43" inkscape:connector-curvature="0"/>
    <path d="m 128.62303,289.89079 c -0.37242,-0.37241 -0.42144,-0.51942 -0.26847,-0.80526 0.35427,-0.66193 0.81132,-0.75643 1.35833,-0.28087 0.54356,0.47259 0.4781,0.80314 -0.25551,1.29024 -0.34405,0.22844 -0.42051,0.20973 -0.83435,-0.20411 z" id="el__vfpnnpR5tt" inkscape:connector-curvature="0"/>
    <path d="m 128.63319,289.798 c -0.63694,-0.70381 0.26683,-1.60758 0.97064,-0.97064 0.42479,0.38443 0.4293,0.64618 0.0175,1.01882 -0.41684,0.37724 -0.6118,0.36773 -0.98819,-0.0482 z" id="el_uqCGAAwKy4t" inkscape:connector-curvature="0"/>
    <path d="m 128.63319,289.798 c -0.63694,-0.70381 0.26683,-1.60758 0.97064,-0.97064 0.42479,0.38443 0.4293,0.64618 0.0175,1.01882 -0.41684,0.37724 -0.6118,0.36773 -0.98819,-0.0482 z" id="el_M8699jOwfBe" inkscape:connector-curvature="0"/>
    <path d="m 31.930851,284.10093 c 0.07503,-4.76973 0.128452,-5.06639 1.057543,-5.87217 0.484465,-0.42015 1.585018,-0.95799 1.960322,-0.95799 0.14928,0 0.320438,-0.0793 0.380353,-0.17626 0.13372,-0.21636 1.440938,-0.23529 1.572286,-0.0228 0.05218,0.0844 0.329475,0.20042 0.61622,0.25777 0.750689,0.15014 2.235603,1.6457 2.391776,2.40893 0.16108,0.7872 0.161268,1.86772 4.59e-4,2.59885 -0.17094,0.77716 -1.428369,1.98395 -2.067197,1.98395 -0.267594,0 -0.486533,0.0842 -0.486533,0.18691 0,0.10815 -0.278354,0.16386 -0.660981,0.13219 l -0.660982,-0.0547 -0.05276,-1.21771 c -0.05035,-1.16233 -0.02831,-1.24003 0.484721,-1.70862 0.908011,-0.82933 0.634722,-1.56834 -0.579981,-1.56834 -1.135066,0 -1.162003,0.10459 -1.168342,4.53874 l -0.0056,3.92182 H 33.2865 31.860846 Z" id="el_WXUh1s-kw0T" inkscape:connector-curvature="0"/>
    <path d="m 44.75908,288.39071 c -0.14542,-0.0771 -0.581668,-0.29051 -0.969443,-0.47435 -1.288684,-0.61098 -1.938386,-1.47668 -2.102801,-2.80193 -0.158578,-1.27815 0.0779,-2.22807 0.7632,-3.06568 0.554183,-0.67737 0.817374,-0.8465 2.185138,-1.40422 0.85281,-0.34775 2.247258,-0.2018 3.338292,0.34938 0.168334,0.085 0.412717,0.15462 0.543064,0.15462 0.130352,0 0.343124,0.1983 0.47283,0.44066 0.12971,0.24235 0.293149,0.44066 0.363201,0.44066 0.07005,0 0.177138,0.19829 0.237966,0.44065 0.06083,0.24236 0.188407,0.44066 0.283501,0.44066 0.10583,0 0.172904,1.09409 0.172904,2.82018 v 2.82019 H 48.72497 47.403006 l -0.0059,-2.15921 c -0.0072,-2.65019 -0.164559,-2.95238 -1.537366,-2.95238 -0.618797,0 -0.953979,0.0931 -1.161511,0.32233 -0.622196,0.68753 -0.242837,1.53426 0.763561,1.70429 l 0.707346,0.11951 v 1.48272 1.48274 l -0.572854,-0.01 c -0.315067,-0.006 -0.691825,-0.0734 -0.837239,-0.15046 z" id="el_XrDYMiko_wM" inkscape:connector-curvature="0"/>
    <path d="m 6.5604196,284.67377 c 0,-0.43641 2.3477376,-3.02462 8.0198774,-8.84135 6.963725,-7.14125 8.234776,-9.88443 7.472839,-16.12796 -0.380373,-3.11688 -1.310516,-5.16262 -3.484162,-7.66305 -0.545704,-0.62774 -3.656462,-3.85717 -6.912793,-7.1765 -5.6407563,-5.74991 -7.0517998,-7.32291 -6.7972766,-7.57743 0.062413,-0.0625 0.7720793,-0.0112 1.577046,0.11416 1.2892408,0.20055 1.5283218,0.1942 2.0071508,-0.0533 0.672471,-0.34776 1.427981,-1.4634 2.4666448,-3.64244 2.257765,-4.73661 3.588381,-6.11402 4.997395,-5.17308 2.389176,1.59546 5.456253,6.69688 5.460253,9.08192 0.002,1.20946 0.356882,1.94597 1.470848,3.05286 1.404118,1.39521 3.329182,2.38118 9.309223,4.76799 5.060511,2.01979 6.358877,2.67339 7.692512,3.87245 1.083888,0.97451 1.639936,2.06468 2.242294,4.39619 0.53958,2.0885 1.151251,3.28369 2.041282,3.98862 0.359851,0.285 1.549167,0.99287 2.642921,1.57304 2.951066,1.56538 3.463992,2.21315 3.137252,3.96211 -0.334157,1.78866 -3.236976,8.15855 -4.483073,9.83756 -0.761827,1.02651 -1.931945,1.79939 -3.105099,2.05098 -1.314328,0.28189 -4.98351,0.22347 -10.285301,-0.16377 -2.617487,-0.19118 -5.155659,-0.34789 -5.640377,-0.34826 l -0.881311,-4.8e-4 -1.303536,2.37692 c -0.716944,1.30731 -1.362066,2.37692 -1.433603,2.37692 -0.180246,0 -0.342161,-0.6701 -0.345037,-1.42787 -0.0056,-1.45532 -0.881903,-2.80239 -1.823222,-2.80239 -0.393975,0 -0.676066,0.18093 -1.156792,0.74188 -1.455745,1.69873 -3.752865,3.57023 -7.245579,5.90306 -3.3793958,2.25715 -5.6403764,3.42021 -5.6403764,2.90146 z" id="el_KccU3GRAGhZ" inkscape:connector-curvature="0"/>
  </g></g></g>
<script>(function(){var a=document.querySelector('#el_16Py4gxwe'),b=a.querySelectorAll('style'),c=function(d){b.forEach(function(f){var g=f.textContent;g&amp;&amp;(f.textContent=g.replace(/transform-box:[^;\r\n]*/gi,'transform-box: '+d))})};c('initial'),window.requestAnimationFrame(function(){return c('fill-box')})})();</script></svg>